<svg width="265" height="45" viewBox="0 0 265 45" fill="none" xmlns="http://www.w3.org/2000/svg">
<path d="M8.40425e-06 1.96018V0.596545H29.4886V1.96018H15.4261V44.2329H14.0625V1.96018H8.40425e-06ZM31.4435 44.2329H29.9947L45.5913 0.596545H47.4663L63.0629 44.2329H61.614L46.614 2.30109H46.4435L31.4435 44.2329ZM36.3867 28.125H56.6708V29.4886H36.3867V28.125ZM71.8253 44.2329V0.596545H73.1889V27.784H73.3594L98.0753 0.596545H99.9503L80.6889 21.7329L99.6946 44.2329H97.9048L79.7514 22.7556L73.1889 30V44.2329H71.8253ZM108.798 44.2329V0.596545H132.065V1.96018H110.162V21.7329H130.787V23.0965H110.162V42.8693H132.662V44.2329H108.798ZM179.313 15.8735H169.98C169.81 14.6661 169.462 13.5937 168.936 12.6562C168.411 11.7045 167.736 10.8948 166.912 10.2272C166.088 9.55961 165.137 9.04825 164.057 8.69314C162.992 8.33802 161.834 8.16047 160.584 8.16047C158.326 8.16047 156.358 8.72155 154.682 9.8437C153.006 10.9517 151.706 12.571 150.783 14.7017C149.86 16.8181 149.398 19.3892 149.398 22.4147C149.398 25.5255 149.86 28.1392 150.783 30.2556C151.721 32.3721 153.027 33.9701 154.703 35.0497C156.38 36.1292 158.319 36.669 160.52 36.669C161.756 36.669 162.9 36.5056 163.951 36.1789C165.016 35.8522 165.961 35.3764 166.784 34.7514C167.608 34.1122 168.29 33.338 168.83 32.4289C169.384 31.5198 169.767 30.4829 169.98 29.3181L179.313 29.3608C179.071 31.3636 178.468 33.2954 177.502 35.1562C176.55 37.0028 175.265 38.6576 173.645 40.1207C172.04 41.5696 170.123 42.7201 167.892 43.5724C165.677 44.4105 163.169 44.8295 160.371 44.8295C156.479 44.8295 152.999 43.9488 149.931 42.1875C146.877 40.4261 144.462 37.8764 142.686 34.5383C140.925 31.2002 140.044 27.159 140.044 22.4147C140.044 17.6562 140.939 13.6079 142.729 10.2698C144.519 6.93177 146.948 4.38916 150.016 2.642C153.084 0.880636 156.536 -4.60148e-05 160.371 -4.60148e-05C162.9 -4.60148e-05 165.243 0.355068 167.402 1.0653C169.576 1.77552 171.5 2.81245 173.177 4.17609C174.853 5.52552 176.216 7.18035 177.267 9.14058C178.333 11.1008 179.015 13.3451 179.313 15.8735ZM192.63 44.2329H182.743L197.807 0.596545H209.696L224.739 44.2329H214.853L203.922 10.5681H203.581L192.63 44.2329ZM192.012 27.0809H215.364V34.2826H192.012V27.0809ZM229.991 44.2329V0.596545H247.207C250.502 0.596545 253.315 1.18603 255.645 2.36501C257.988 3.52978 259.771 5.18461 260.993 7.3295C262.228 9.46018 262.846 11.9673 262.846 14.8508C262.846 17.7485 262.221 20.2414 260.971 22.3295C259.721 24.4034 257.91 25.9943 255.538 27.1022C253.18 28.2102 250.325 28.7642 246.973 28.7642H235.446V21.3494H245.481C247.243 21.3494 248.706 21.1079 249.87 20.625C251.035 20.142 251.902 19.4176 252.47 18.4517C253.052 17.4858 253.343 16.2855 253.343 14.8508C253.343 13.4019 253.052 12.1804 252.47 11.186C251.902 10.1917 251.028 9.43887 249.849 8.92751C248.684 8.40194 247.214 8.13916 245.439 8.13916H239.217V44.2329H229.991ZM253.556 24.375L264.402 44.2329H254.217L243.606 24.375H253.556Z" fill="black"/>
</svg>
